<svg width="133" height="82" viewBox="0 0 133 82" fill="none" xmlns="http://www.w3.org/2000/svg">
<path d="M6.07363 43C6.07363 36.7597 2.39284 30.988 2.10141 24.7222C1.88432 20.0549 1.84512 15.4461 3.79585 11.1111C4.04908 10.5484 8.28527 3.82392 9.07363 5.44444C10.0851 7.5235 10.2262 10.4887 10.5736 12.7222C11.681 19.8408 11.8956 27.0958 12.3236 34.2778C13.1597 48.305 14.3241 63.4114 10.6014 77.1389C10.5782 77.2244 9.60689 81.6953 9.57363 79.6667C9.50967 75.7654 9.6446 71.8674 10.1847 68C11.766 56.6783 14.3578 45.2938 18.4625 34.6111C19.6557 31.5058 20.7535 28.2318 22.5181 25.3889C23.9282 23.1171 23.5736 26.3781 23.5736 27.4167C23.5736 36.7764 22.7642 46.0608 19.6014 54.9167C18.9036 56.8706 18.2269 58.4848 16.7959 60C15.4614 61.4129 16.0736 58.9451 16.0736 57.8889C16.0736 49.4226 17.5715 41.1708 21.5736 33.6111C23.2128 30.5149 25.201 27.5886 27.3236 24.8056C27.6697 24.3518 31.3952 19.1808 31.5459 21.1389C31.7027 23.1781 31.0527 24.7959 30.3792 26.6667C29.8939 28.0146 29.9448 27.7334 30.7125 26.8889C34.9548 22.2224 40.2977 18.8248 45.9625 16.1111C55.821 11.3885 65.7134 6.73292 75.5736 2" stroke="#131520" stroke-width="3" stroke-linecap="round"/>
<path d="M88.0736 30.5C88.3031 28.4352 91.591 26.4231 92.9625 25.1111C94.4137 23.7231 98.7555 20.1526 100.796 19.8611C102.122 19.6717 97.0984 29.7847 96.8236 30.2223C93.9022 34.8749 91.1431 39.6293 87.9625 44.1111C87.0322 45.4221 86.0169 46.7348 85.1847 48.1111C84.7817 48.7777 84.0031 50.9424 84.0736 50.1667C84.4017 46.5579 88.7939 42.4533 91.3236 40.25C95.1864 36.8857 98.7347 33.1168 102.351 29.5C103.386 28.4654 104.202 27.2737 105.074 26.1111C105.811 25.1282 105.567 29.1226 105.546 29.5278C105.339 33.4644 103.022 36.7113 102.601 40.5C102.408 42.241 102.774 41.3556 103.685 40.4445C105.528 38.6011 107.584 36.8 109.574 35.1111C110.85 34.0271 112.102 32.347 113.574 31.6111C117.408 29.6938 107.888 31.1668 107.213 31.25C95.9582 32.6376 85.0694 33.5 73.7125 33.5C71.2959 33.5 68.8792 33.5 66.4625 33.5C65.0162 33.5 69.2749 32.8228 70.6847 32.5C82.0426 29.9001 93.3157 27.6882 104.851 26C113.367 24.7538 122.437 22.5 131.074 22.5" stroke="#131520" stroke-width="3" stroke-linecap="round"/>
</svg>
